<?xml version="1.0" standalone="no"?>
<!DOCTYPE svg PUBLIC "-//W3C//DTD SVG 20010904//EN"
 "http://www.w3.org/TR/2001/REC-SVG-20010904/DTD/svg10.dtd">
<svg version="1.0" xmlns="http://www.w3.org/2000/svg"
 width="224.000000pt" height="225.000000pt" viewBox="0 0 224.000000 225.000000"
 preserveAspectRatio="xMidYMid meet">

<g transform="translate(0.000000,225.000000) scale(0.100000,-0.100000)"
fill="#000000" stroke="none">
<path d="M1134 1878 c3 -62 9 -156 13 -208 l7 -95 17 160 c9 88 20 181 23 208
l5 47 -36 0 -36 0 7 -112z"/>
<path d="M1390 1794 c-69 -85 -134 -167 -145 -182 -11 -15 58 47 153 137 95
90 172 167 172 171 0 5 -44 31 -53 30 -1 0 -58 -70 -127 -156z"/>
<path d="M803 1933 c-8 -3 35 -60 109 -144 130 -150 164 -183 107 -104 -20 28
-68 96 -108 153 -68 97 -80 107 -108 95z"/>
<path d="M539 1793 c-13 -17 -13 -17 6 -3 11 8 22 16 24 17 2 2 0 3 -6 3 -6 0
-17 -8 -24 -17z"/>
<path d="M557 1769 c7 -7 15 -10 18 -7 3 3 -2 9 -12 12 -14 6 -15 5 -6 -5z"/>
<path d="M610 1776 c0 -3 9 -10 20 -16 11 -6 20 -8 20 -6 0 3 -9 10 -20 16
-11 6 -20 8 -20 6z"/>
<path d="M660 1746 c0 -3 9 -10 20 -16 11 -6 20 -8 20 -6 0 3 -9 10 -20 16
-11 6 -20 8 -20 6z"/>
<path d="M713 1705 c0 -7 7 -11 15 -7 11 4 13 1 7 -8 -5 -9 -4 -11 3 -6 16 10
15 14 -6 25 -14 7 -19 6 -19 -4z"/>
<path d="M754 1679 c-4 -7 -3 -9 4 -5 5 3 12 2 14 -3 1 -4 28 -20 58 -35 55
-26 40 -11 -31 32 -27 16 -40 19 -45 11z"/>
<path d="M1050 1626 c0 -2 8 -10 18 -17 15 -13 16 -12 3 4 -13 16 -21 21 -21
13z"/>
<path d="M410 1541 c0 -26 25 -29 330 -34 135 -2 232 -3 215 0 -16 2 -129 12
-250 23 -121 11 -237 23 -257 26 -33 5 -38 3 -38 -15z"/>
<path d="M1603 1527 c-117 -11 -211 -23 -208 -25 2 -2 119 -1 260 3 241 7 255
8 255 26 0 24 -20 24 -307 -4z"/>
<path d="M1112 1520 c-33 -31 -29 -65 9 -80 36 -15 56 -7 79 33 13 23 13 28
-4 46 -24 27 -56 27 -84 1z"/>
<path d="M590 1232 c0 -206 -1 -218 -20 -232 -41 -30 -24 -40 65 -40 68 0 85
3 85 15 0 7 -7 18 -15 23 -13 7 -15 30 -13 138 l3 129 39 10 c31 7 45 5 75
-10 l36 -20 3 -135 c2 -92 6 -137 15 -142 7 -4 31 -8 55 -8 36 0 42 3 42 20 0
11 -7 23 -15 26 -12 5 -15 29 -15 131 0 117 -1 125 -24 148 -32 32 -96 48
-162 39 l-54 -6 0 66 0 66 -50 0 -50 0 0 -218z"/>
<path d="M1157 1380 c-30 -24 -43 -25 -51 -5 -10 27 -31 15 -53 -30 l-22 -45
21 -20 c19 -17 19 -22 8 -50 -8 -19 -11 -52 -7 -88 6 -59 45 -198 53 -189 12
11 33 114 44 214 10 82 17 112 31 125 20 17 27 92 10 102 -5 3 -20 -3 -34 -14z"/>
<path d="M295 1330 c-69 -16 -115 -54 -115 -94 0 -32 56 -74 148 -112 51 -20
97 -46 103 -56 34 -63 -113 -106 -156 -45 -8 12 -15 32 -15 44 0 21 -5 23 -45
23 -44 0 -45 -1 -39 -27 20 -85 98 -124 221 -108 71 9 113 45 113 99 0 42 -27
66 -108 95 -130 47 -162 81 -107 117 48 31 126 3 139 -52 5 -19 13 -24 36 -24
23 0 30 4 30 20 0 43 -29 90 -62 104 -45 18 -107 25 -143 16z"/>
<path d="M1278 1318 c-7 -19 2 -38 18 -38 11 0 14 -27 14 -145 0 -138 -1 -145
-20 -145 -11 0 -20 -7 -20 -15 0 -12 15 -15 75 -15 68 0 75 2 75 20 0 11 -4
20 -10 20 -6 0 -10 50 -10 129 l0 129 45 17 c48 19 88 14 118 -12 15 -14 17
-36 17 -160 l0 -143 50 0 c37 0 50 4 50 14 0 8 -4 18 -10 21 -6 4 -10 60 -10
135 0 129 0 130 -29 162 -27 30 -34 33 -105 36 -56 3 -82 0 -99 -11 -20 -13
-26 -13 -42 -1 -24 18 -101 19 -107 2z"/>
<path d="M1839 1317 c-20 -8 -50 -24 -68 -36 l-31 -22 0 -117 c0 -139 7 -154
82 -177 112 -33 216 -7 244 62 20 46 9 68 -32 68 -23 0 -33 -7 -46 -35 -32
-63 -74 -76 -143 -43 -34 16 -35 19 -35 70 l0 53 124 0 124 0 7 56 c8 63 1 75
-58 105 -50 26 -123 33 -168 16z m141 -62 c7 -9 9 -26 5 -45 l-7 -30 -84 0
-84 0 0 33 c0 18 5 38 12 45 18 18 142 16 158 -3z"/>
<path d="M82 758 l-2 -98 1058 2 1057 3 -1052 2 -1052 3 -4 93 -3 92 -2 -97z"/>
<path d="M893 790 c0 -25 2 -35 4 -22 2 12 2 32 0 45 -2 12 -4 2 -4 -23z"/>
<path d="M1343 765 c0 -38 2 -53 4 -32 2 20 2 52 0 70 -2 17 -4 1 -4 -38z"/>
<path d="M310 795 c0 -14 -6 -25 -12 -25 -10 0 -10 -2 -1 -8 6 -4 13 -23 16
-42 2 -20 4 -7 5 33 1 37 0 67 -3 67 -3 0 -5 -11 -5 -25z"/>
<path d="M571 788 c-1 -9 -7 -19 -13 -21 -7 -3 1 -6 17 -6 17 0 25 3 19 7 -6
4 -14 14 -17 22 -4 12 -6 12 -6 -2z"/>
<path d="M1122 780 c0 -14 2 -19 5 -12 2 6 2 18 0 25 -3 6 -5 1 -5 -13z"/>
<path d="M1176 791 c-4 -6 -3 -11 2 -11 4 0 16 -16 26 -36 9 -20 19 -34 22
-32 2 3 -6 24 -20 48 -14 24 -27 37 -30 31z"/>
<path d="M1645 790 c-4 -6 5 -24 19 -41 17 -20 26 -25 26 -15 0 8 -9 20 -21
26 -12 7 -18 18 -15 26 6 16 0 19 -9 4z"/>
<path d="M1970 785 c-4 -36 1 -60 16 -73 9 -8 10 -8 4 0 -14 17 -12 48 3 48 8
0 9 3 1 8 -6 4 -14 14 -17 22 -4 11 -6 10 -7 -5z"/>
<path d="M981 777 c-1 -9 15 -34 34 -55 19 -20 35 -31 35 -24 0 6 -5 12 -11
12 -6 0 -9 7 -6 14 4 10 1 13 -8 10 -9 -4 -19 6 -29 28 -9 20 -15 26 -15 15z"/>
<path d="M510 770 c8 -5 15 -23 16 -40 2 -43 14 -51 14 -9 0 35 -14 59 -34 59
-6 0 -4 -5 4 -10z"/>
<path d="M830 776 c0 -2 7 -7 16 -10 8 -3 12 -2 9 4 -6 10 -25 14 -25 6z"/>
<path d="M1432 774 c11 -4 18 -19 21 -45 l4 -39 -1 42 c-1 35 -5 43 -21 45
-15 1 -15 0 -3 -3z"/>
<path d="M1493 736 c0 -24 2 -31 4 -16 3 14 9 27 13 30 4 3 2 10 -5 16 -9 9
-12 3 -12 -30z"/>
<path d="M196 753 c-6 -14 -5 -15 5 -6 7 7 10 15 7 18 -3 3 -9 -2 -12 -12z"/>
<path d="M350 741 c0 -17 4 -32 8 -35 4 -2 6 11 4 30 -5 42 -12 45 -12 5z"/>
<path d="M655 759 c-11 -16 -1 -19 13 -3 7 8 8 14 3 14 -5 0 -13 -5 -16 -11z"/>
<path d="M777 763 c6 -4 13 -22 16 -38 4 -27 5 -27 3 4 0 21 -7 36 -16 38 -10
3 -11 2 -3 -4z"/>
<path d="M1020 766 c0 -9 30 -14 35 -6 4 6 -3 10 -14 10 -12 0 -21 -2 -21 -4z"/>
<path d="M1712 758 c-17 -17 -15 -33 5 -49 15 -13 15 -12 3 8 -11 18 -12 24
-1 37 16 19 10 21 -7 4z"/>
<path d="M1759 761 c8 -5 11 -17 7 -32 -6 -21 -5 -22 4 -6 13 21 6 47 -12 47
-10 0 -10 -2 1 -9z"/>
<path d="M1863 735 c0 -22 2 -30 4 -17 2 12 2 30 0 40 -3 9 -5 -1 -4 -23z"/>
<path d="M1534 745 c-8 -21 14 -45 40 -44 19 1 18 2 -4 8 -17 5 -25 14 -24 29
1 26 -4 28 -12 7z"/>
<path d="M856 724 c4 -37 11 -39 12 -4 0 16 -3 30 -7 30 -5 0 -7 -12 -5 -26z"/>
<path d="M1131 728 c-1 -33 4 -35 20 -7 6 13 7 19 1 15 -6 -3 -13 0 -15 6 -3
7 -6 1 -6 -14z"/>
<path d="M1261 739 c-1 -21 24 -43 41 -36 8 3 6 6 -5 6 -10 1 -22 11 -27 24
-6 15 -9 17 -9 6z"/>
<path d="M1891 739 c-1 -21 24 -43 41 -36 8 3 6 6 -5 6 -10 1 -22 11 -27 24
-6 15 -9 17 -9 6z"/>
<path d="M396 732 c-2 -4 -1 -14 4 -22 7 -11 9 -9 7 8 -1 24 -3 26 -11 14z"/>
<path d="M891 724 c0 -11 3 -14 6 -6 3 7 2 16 -1 19 -3 4 -6 -2 -5 -13z"/>
<path d="M570 721 c0 -10 19 -25 25 -20 1 2 -3 10 -11 17 -8 7 -14 8 -14 3z"/>
<path d="M650 721 c0 -10 19 -25 25 -20 1 2 -3 10 -11 17 -8 7 -14 8 -14 3z"/>
<path d="M699 713 c-13 -16 -12 -17 4 -4 16 13 21 21 13 21 -2 0 -10 -8 -17
-17z"/>
<path d="M972 714 c10 -10 20 -16 22 -13 3 3 -5 11 -17 18 -21 13 -21 12 -5
-5z"/>
<path d="M1802 714 c9 -9 21 -15 27 -13 6 2 -2 10 -17 17 -25 11 -25 11 -10
-4z"/>
<path d="M2030 721 c0 -5 5 -13 10 -16 6 -3 10 -2 10 4 0 5 -4 13 -10 16 -5 3
-10 2 -10 -4z"/>
<path d="M1417 709 c7 -7 15 -10 18 -7 3 3 -2 9 -12 12 -14 6 -15 5 -6 -5z"/>
<path d="M458 703 c7 -3 16 -2 19 1 4 3 -2 6 -13 5 -11 0 -14 -3 -6 -6z"/>
<path d="M1648 703 c7 -3 16 -2 19 1 4 3 -2 6 -13 5 -11 0 -14 -3 -6 -6z"/>
<path d="M330 538 c-16 -29 -30 -60 -30 -68 0 -8 8 1 18 20 10 20 27 37 42 41
l25 7 -25 1 -25 2 28 24 c19 17 23 25 13 25 -9 0 -29 -24 -46 -52z"/>
<path d="M968 582 c9 -7 7 -13 -9 -28 -25 -22 -52 -81 -44 -94 11 -19 33 -10
64 25 17 20 31 39 31 42 0 3 -15 -11 -33 -32 -38 -44 -63 -42 -46 3 11 28 57
82 70 82 4 0 10 -10 12 -22 4 -20 4 -19 6 5 1 24 -2 27 -31 27 -21 0 -28 -3
-20 -8z"/>
<path d="M1061 567 c-13 -21 -12 -21 5 -5 10 10 16 20 13 22 -3 3 -11 -5 -18
-17z"/>
<path d="M1164 578 c-4 -7 -3 -8 4 -4 18 11 14 -1 -12 -42 -37 -57 -40 -77
-14 -79 49 -4 86 45 57 74 -8 8 -5 13 10 18 12 3 21 11 21 16 0 6 -10 3 -22
-5 -33 -23 -41 -20 -22 9 15 22 15 25 1 25 -9 0 -19 -5 -23 -12z m34 -76 c2
-15 -4 -25 -22 -34 -34 -15 -42 -6 -26 32 15 36 43 37 48 2z"/>
<path d="M1602 531 c-17 -32 -32 -62 -32 -67 1 -5 10 8 21 29 15 28 26 37 47
38 l27 1 -25 7 -24 7 22 22 c13 13 17 22 9 22 -7 0 -27 -26 -45 -59z"/>
<path d="M601 544 c-12 -19 -21 -39 -21 -43 0 -5 -6 -14 -14 -20 -11 -9 -15
-9 -19 1 -4 9 -6 8 -6 -3 -1 -12 7 -16 23 -15 13 0 22 5 19 9 -2 4 7 30 21 57
30 58 28 67 -3 14z"/>
<path d="M1415 530 c-25 -50 -34 -82 -13 -45 12 19 12 19 18 -4 5 -23 6 -23
20 -5 9 10 10 15 3 10 -7 -4 -13 -3 -13 1 0 5 6 15 13 22 10 11 9 13 -5 8 -22
-8 -22 -4 -3 33 9 17 13 30 10 30 -2 0 -16 -22 -30 -50z"/>
<path d="M697 542 c-19 -21 -34 -82 -20 -82 5 0 14 5 21 12 9 9 12 9 12 -2 1
-16 29 29 29 45 0 6 -6 -1 -14 -15 -8 -14 -14 -21 -15 -16 0 5 -7 3 -15 -4
-11 -9 -15 -9 -15 -1 0 23 21 51 38 52 10 0 12 3 4 6 -6 2 -10 9 -6 14 9 15
-2 10 -19 -9z"/>
<path d="M750 549 c0 -5 5 -7 10 -4 6 3 10 8 10 11 0 2 -4 4 -10 4 -5 0 -10
-5 -10 -11z"/>
<path d="M1488 538 c-10 -10 -16 -18 -13 -18 3 0 1 -9 -6 -21 -8 -16 -8 -24 2
-33 9 -8 10 -8 5 1 -8 15 13 61 30 65 7 2 10 8 6 14 -4 6 -13 4 -24 -8z"/>
<path d="M1747 542 c-21 -22 -34 -82 -19 -82 6 0 14 5 17 10 5 8 12 7 23 -2
10 -7 14 -9 10 -4 -4 5 -3 18 3 30 10 20 10 20 -5 2 -9 -11 -16 -16 -16 -12 0
5 -7 3 -15 -4 -22 -18 -20 15 3 38 15 17 27 42 19 42 -2 0 -11 -8 -20 -18z"/>
<path d="M1026 515 c-20 -31 -21 -51 0 -31 13 14 28 56 20 56 -2 0 -11 -11
-20 -25z"/>
<path d="M397 512 c-18 -19 -23 -52 -9 -52 11 0 32 22 32 34 0 5 -7 1 -15 -10
-12 -16 -14 -16 -15 -3 0 20 24 42 35 31 5 -4 5 -1 1 6 -9 16 -10 15 -29 -6z"/>
<path d="M637 503 c-3 -16 -2 -31 1 -35 4 -4 8 9 9 28 3 41 -3 45 -10 7z"/>
<path d="M768 516 c-23 -22 -23 -33 -1 -15 15 12 16 12 9 -6 -5 -15 -4 -17 4
-9 7 7 10 20 8 30 -3 17 -4 17 -20 0z"/>
<path d="M1338 513 c-8 -10 -18 -25 -23 -33 -4 -8 4 -1 19 15 14 17 25 27 26
24 0 -13 -27 -59 -46 -76 -11 -10 -14 -14 -7 -9 7 5 13 5 13 0 0 -5 8 3 18 19
10 15 20 25 23 23 2 -2 5 9 6 25 2 33 -7 37 -29 12z"/>
<path d="M440 501 c-15 -29 -12 -40 9 -38 12 1 21 11 24 26 l5 25 -19 -25
c-20 -26 -25 -19 -9 12 6 10 8 19 6 19 -3 0 -10 -9 -16 -19z"/>
<path d="M519 513 c-9 -2 -21 -16 -28 -31 -9 -22 -9 -24 1 -11 7 8 21 18 31
22 9 3 17 11 17 17 0 5 -1 9 -2 9 -2 -1 -10 -3 -19 -6z"/>
<path d="M615 509 c-4 -6 -5 -12 -2 -15 2 -3 7 2 10 11 7 17 1 20 -8 4z"/>
<path d="M824 510 c-21 -8 -39 -38 -29 -48 2 -3 8 4 12 14 7 18 8 17 13 -4 4
-20 6 -19 16 13 6 19 11 35 10 34 -1 0 -10 -4 -22 -9z"/>
<path d="M1232 499 c-17 -27 -15 -47 2 -23 8 10 21 19 30 19 22 0 20 20 -2 21
-11 1 -24 -7 -30 -17z"/>
<path d="M1831 492 c-16 -33 -13 -40 4 -15 9 12 21 20 29 17 7 -3 13 1 13 8 0
23 -35 15 -46 -10z"/>
<path d="M1902 508 c-17 -17 -15 -48 2 -48 8 0 18 4 21 10 3 5 0 7 -9 4 -10
-4 -14 0 -11 13 1 10 8 17 14 16 6 -2 11 2 11 7 0 14 -13 13 -28 -2z"/>
<path d="M1662 498 c-19 -19 -14 -36 11 -34 15 1 22 8 23 23 l2 23 -19 -23
c-10 -12 -18 -17 -19 -11 0 5 5 15 12 22 7 7 10 12 7 12 -3 0 -10 -5 -17 -12z"/>
<path d="M1796 493 c-4 -9 -3 -20 1 -24 4 -4 9 3 9 17 2 28 -1 31 -10 7z"/>
<path d="M511 464 c0 -11 3 -14 6 -6 3 7 2 16 -1 19 -3 4 -6 -2 -5 -13z"/>
<path d="M740 470 c0 -6 7 -10 15 -10 8 0 15 2 15 4 0 2 -7 6 -15 10 -8 3 -15
1 -15 -4z"/>
<path d="M991 423 c-2 -20 16 -24 30 -5 13 15 12 16 -3 4 -13 -10 -17 -10 -21
0 -4 9 -6 9 -6 1z"/>
<path d="M1300 410 c-9 -6 -10 -10 -3 -10 6 0 15 5 18 10 8 12 4 12 -15 0z"/>
</g>
</svg>
